# xmcd CD database file
#
# Track frame offsets:
#	180
#	16526
#	36542
#	50563
#	73637
#	94554
#	108581
#	117245
#	132843
#	155078
#	169917
#
# Disc length: 2521 seconds
#
# Revision: 0
# Processed by: cddbd v1.5.1PL0 Copyright (c) Steve Scherf et al.
# Submitted via: Feurio! 1.65 - http://www.feurio.com
#
DISCID=9209d70b
DTITLE=The Moochers - Outta Shape
DYEAR=1900
DGENRE=blues
TTITLE0=Tell me Mama
TTITLE1=That's what I'm here for
TTITLE2=Meet me halfway
TTITLE3=Outta Shape
TTITLE4=T-bone Boogie
TTITLE5=Under my skin
TTITLE6=Don't cut me off
TTITLE7=Knock me a kiss
TTITLE8=So many mistakes
TTITLE9=Until my baby comes along
TTITLE10=Drop anchor
EXTD=
EXTT0=
EXTT1=
EXTT2=
EXTT3=
EXTT4=
EXTT5=
EXTT6=
EXTT7=
EXTT8=
EXTT9=
EXTT10=
PLAYORDER=
